# xmcd
#
# Track frame offsets:
#	150
#	12042
#	28405
#	43407
#	46238
#	69498
#	85969
#	87908
#	101421
#	119466
#	122306
#	141237
#	153484
#
# Disc length: 2084 seconds
#
# Revision: 0
# Processed by: cddbd v1.4PL0 Copyright (c) Steve Scherf et al.
# Submitted via: EasyCDDAExtractor 4.6.9.1
#
DISCID=aa08220d
DTITLE=Pearlene
DYEAR=2003
DGENRE=Blues
TTITLE0=Burying Ground
TTITLE1=Free to be on Your Knees
TTITLE2=Make You Shake (Don't Mean Nothin')
TTITLE3=Gettin' It #1
TTITLE4=Naked Music
TTITLE5=Yer So Plain
TTITLE6=Gettin' It #2
TTITLE7=In The Beginning
TTITLE8=Earthshaker
TTITLE9=Gettin' It #3
TTITLE10=Whiskey and Gasoline
TTITLE11=Number 8 Highway
TTITLE12=Gettin' Out
EXTD=
EXTT0=
EXTT1=
EXTT2=
EXTT3=
EXTT4=
EXTT5=
EXTT6=
EXTT7=
EXTT8=
EXTT9=
EXTT10=
EXTT11=
EXTT12=
PLAYORDER=
